<svg width="25" height="26" viewBox="0 0 25 26" fill="none" xmlns="http://www.w3.org/2000/svg">
<path fill-rule="evenodd" clip-rule="evenodd" d="M22.3214 0.499939H2.67856C1.19977 0.499939 0 1.69971 0 3.17853V22.8214C0 24.3002 1.19977 25.4999 2.67856 25.4999H22.3214C23.8002 25.4999 25 24.3002 25 22.8214V3.17853C25 1.69971 23.8002 0.499939 22.3214 0.499939ZM12.5 4C8.91016 4 6 6.91016 6 10.5V21C6 21.5523 6.44772 22 7 22H18C18.5523 22 19 21.5523 19 21V10.5C19 6.91016 16.0898 4 12.5 4Z" fill="#918E9B"/>
</svg>
